<svg width="32" height="32" viewBox="0 0 32 32" fill="none" xmlns="http://www.w3.org/2000/svg">
<circle cx="16" cy="16" r="16" fill="#F1F1F1"/>
<mask id="mask0_2769_2548" style="mask-type:alpha" maskUnits="userSpaceOnUse" x="4" y="4" width="24" height="24">
<rect x="4.36365" y="4.36353" width="23.2727" height="23.2727" fill="#D9D9D9"/>
</mask>
<g mask="url(#mask0_2769_2548)">
<path d="M6.54541 21.818V20.0481C6.54541 19.6377 6.65133 19.2715 6.86316 18.9495C7.07497 18.6275 7.35786 18.3769 7.71181 18.1978C8.46853 17.8278 9.22944 17.5424 9.99455 17.3419C10.7597 17.1413 11.6006 17.041 12.5173 17.041C13.434 17.041 14.2749 17.1413 15.04 17.3419C15.8052 17.5424 16.5661 17.8278 17.3228 18.1978C17.6768 18.3769 17.9596 18.6275 18.1715 18.9495C18.3833 19.2715 18.4892 19.6377 18.4892 20.0481V21.818H6.54541ZM20.0817 21.818V19.9501C20.0817 19.4275 19.9537 18.9294 19.6978 18.4559C19.3259 17.897 18.8749 17.642 18.1938 17.3123C18.679 17.3683 19.2381 17.5777 19.2855 17.5922C19.7521 17.7851 20.2706 17.9709 20.7064 18.1985C21.1178 18.418 21.4356 18.6766 21.6596 18.9745C21.8837 19.2723 21.9958 19.5975 21.9958 19.9501V21.818H20.0817ZM12.5173 15.7548C11.7509 15.7548 11.0949 15.482 10.5491 14.9363C10.0033 14.3906 9.73043 13.7345 9.73043 12.9682C9.73043 12.2019 10.0033 11.5459 10.5491 11.0002C11.0949 10.4545 11.7509 10.1816 12.5173 10.1816C13.2837 10.1816 13.9398 10.4545 14.4855 11.0002C15.0313 11.5459 15.3042 12.2019 15.3042 12.9682C15.3042 13.7345 15.0313 14.3906 14.4855 14.9363C13.9398 15.482 13.2837 15.7548 12.5173 15.7548ZM19.3926 12.9682C19.3926 13.7345 19.1197 14.3906 18.574 14.9363C18.0282 15.482 17.3721 15.7548 16.6057 15.7548C16.5159 15.7548 16.4016 15.7446 16.2627 15.7242C16.1239 15.7038 16.0096 15.6813 15.9198 15.6568C16.2338 15.2794 16.4751 14.8606 16.6437 14.4005C16.8124 13.9405 16.8967 13.4627 16.8967 12.9673C16.8967 12.4718 16.8107 11.996 16.6387 11.5397C16.4667 11.0835 16.227 10.6634 15.9198 10.2796C16.0341 10.2388 16.1484 10.2123 16.2627 10.2C16.3771 10.1878 16.4914 10.1816 16.6057 10.1816C17.3721 10.1816 18.0282 10.4545 18.574 11.0002C19.1197 11.5459 19.3926 12.2019 19.3926 12.9682Z" fill="#1C1B1F"/>
<path d="M23.1706 12.9683C23.1706 13.7346 22.8978 14.3906 22.352 14.9363C21.8062 15.482 21.1501 15.7548 20.3838 15.7548C20.2939 15.7548 20.1796 15.7446 20.0408 15.7242C19.9019 15.7038 19.7876 15.6814 19.6978 15.6569C20.0118 15.2794 20.2531 14.8606 20.4218 14.4006C20.5904 13.9405 20.6747 13.4628 20.6747 12.9673C20.6747 12.4719 20.5887 11.996 20.4167 11.5397C20.2447 11.0835 20.0051 10.6635 19.6978 10.2797C19.8121 10.2388 19.9264 10.2123 20.0408 10.2C20.1551 10.1878 20.2694 10.1817 20.3838 10.1817C21.1501 10.1817 21.8062 10.4545 22.352 11.0002C22.8978 11.5459 23.1706 12.2019 23.1706 12.9683Z" fill="#1C1B1F"/>
<path d="M23.5404 21.818V19.9501C23.5404 19.4275 23.4125 18.9294 23.1565 18.4559C22.7847 17.897 22.3337 17.642 21.6525 17.3123C22.1377 17.3683 22.6968 17.5777 22.7442 17.5922C23.2108 17.7851 23.7293 17.9709 24.1652 18.1985C24.5766 18.418 24.8943 18.6766 25.1184 18.9745C25.3425 19.2723 25.4545 19.5975 25.4545 19.9501V21.818H23.5404Z" fill="#1C1B1F"/>
</g>
</svg>
