<svg width="32" height="32" viewBox="0 0 32 32" fill="none" xmlns="http://www.w3.org/2000/svg">
<circle cx="16" cy="16" r="16" fill="#F1F1F1"/>
<mask id="mask0_2769_2470" style="mask-type:alpha" maskUnits="userSpaceOnUse" x="4" y="4" width="24" height="24">
<rect x="4.36365" y="4.36353" width="23.2727" height="23.2727" fill="#D9D9D9"/>
</mask>
<g mask="url(#mask0_2769_2470)">
<path d="M16 16C14.8 16 13.7727 15.5727 12.9182 14.7182C12.0636 13.8636 11.6363 12.8363 11.6363 11.6363C11.6363 10.4363 12.0636 9.40907 12.9182 8.55452C13.7727 7.69998 14.8 7.27271 16 7.27271C17.2 7.27271 18.2272 7.69998 19.0818 8.55452C19.9363 9.40907 20.3636 10.4363 20.3636 11.6363C20.3636 12.8363 19.9363 13.8636 19.0818 14.7182C18.2272 15.5727 17.2 16 16 16ZM7.27271 24.7272V21.6727C7.27271 21.0545 7.4318 20.4863 7.74998 19.9682C8.06816 19.45 8.49089 19.0545 9.01816 18.7818C10.1454 18.2182 11.2909 17.7954 12.4545 17.5136C13.6182 17.2318 14.8 17.0909 16 17.0909C17.2 17.0909 18.3818 17.2318 19.5454 17.5136C20.7091 17.7954 21.8545 18.2182 22.9818 18.7818C23.5091 19.0545 23.9318 19.45 24.25 19.9682C24.5682 20.4863 24.7272 21.0545 24.7272 21.6727V24.7272H7.27271Z" fill="#1C1B1F"/>
</g>
</svg>
