<svg width="24" height="24" viewBox="0 0 24 24" fill="none" xmlns="http://www.w3.org/2000/svg">
<mask id="mask0_2660_2098" style="mask-type:alpha" maskUnits="userSpaceOnUse" x="0" y="0" width="24" height="24">
<rect width="24" height="24" fill="#D9D9D9"/>
</mask>
<g mask="url(#mask0_2660_2098)">
<path d="M7.37305 12.7501L12.5423 17.9193C12.691 18.068 12.7644 18.2421 12.7625 18.4414C12.7606 18.6408 12.682 18.818 12.5269 18.9732C12.3718 19.118 12.1962 19.193 12 19.1982C11.8039 19.2033 11.6282 19.1283 11.4731 18.9732L5.13273 12.6328C5.03914 12.5392 4.97312 12.4405 4.93465 12.3366C4.89619 12.2328 4.87695 12.1206 4.87695 12.0001C4.87695 11.8796 4.89619 11.7674 4.93465 11.6636C4.97312 11.5597 5.03914 11.461 5.13273 11.3674L11.4731 5.02706C11.6116 4.88859 11.783 4.81776 11.9875 4.81456C12.192 4.81136 12.3718 4.88219 12.5269 5.02706C12.682 5.18217 12.7596 5.36037 12.7596 5.56166C12.7596 5.76294 12.682 5.94114 12.5269 6.09626L7.37305 11.2501H18.75C18.9628 11.2501 19.141 11.3219 19.2846 11.4655C19.4282 11.6091 19.5 11.7873 19.5 12.0001C19.5 12.2129 19.4282 12.3911 19.2846 12.5347C19.141 12.6783 18.9628 12.7501 18.75 12.7501H7.37305Z" fill="#1C1B1F"/>
</g>
</svg>
