<svg width="18" height="18" viewBox="0 0 18 18" fill="none" xmlns="http://www.w3.org/2000/svg">
<mask id="mask0_2769_2847" style="mask-type:alpha" maskUnits="userSpaceOnUse" x="0" y="0" width="18" height="18">
<rect width="18" height="18" fill="#D9D9D9"/>
</mask>
<g mask="url(#mask0_2769_2847)">
<path d="M6.79324 13.125C6.41439 13.125 6.09372 12.9937 5.83123 12.7312C5.56873 12.4687 5.43748 12.148 5.43748 11.7692V3.23078C5.43748 2.85193 5.56873 2.53125 5.83123 2.26875C6.09372 2.00625 6.41439 1.875 6.79324 1.875H13.0817C13.4605 1.875 13.7812 2.00625 14.0437 2.26875C14.3062 2.53125 14.4374 2.85193 14.4374 3.23078V11.7692C14.4374 12.148 14.3062 12.4687 14.0437 12.7312C13.7812 12.9937 13.4605 13.125 13.0817 13.125H6.79324ZM6.79324 12H13.0817C13.1394 12 13.1922 11.9759 13.2403 11.9279C13.2884 11.8798 13.3124 11.8269 13.3124 11.7692V3.23078C13.3124 3.17308 13.2884 3.12018 13.2403 3.07209C13.1922 3.02402 13.1394 2.99998 13.0817 2.99998H6.79324C6.73554 2.99998 6.68265 3.02402 6.63458 3.07209C6.58649 3.12018 6.56244 3.17308 6.56244 3.23078V11.7692C6.56244 11.8269 6.58649 11.8798 6.63458 11.9279C6.68265 11.9759 6.73554 12 6.79324 12ZM4.16826 15.7499C3.78942 15.7499 3.46875 15.6187 3.20625 15.3562C2.94375 15.0937 2.8125 14.773 2.8125 14.3942V4.73078H3.93748V14.3942C3.93748 14.4519 3.96152 14.5048 4.00959 14.5528C4.05768 14.6009 4.11057 14.625 4.16826 14.625H11.5817V15.7499H4.16826Z" fill="black"/>
</g>
</svg>
