<svg width="24" height="24" viewBox="0 0 24 24" fill="none" xmlns="http://www.w3.org/2000/svg">
<mask id="mask0_2660_2769" style="mask-type:alpha" maskUnits="userSpaceOnUse" x="0" y="0" width="24" height="24">
<rect width="24" height="24" fill="#D9D9D9"/>
</mask>
<g mask="url(#mask0_2660_2769)">
<path d="M14.8308 12L7.2981 4.46728C7.09938 4.26856 7.00258 4.03203 7.0077 3.75768C7.01283 3.48331 7.11476 3.24678 7.31347 3.04808C7.51219 2.84936 7.74872 2.75 8.02307 2.75C8.29742 2.75 8.53396 2.84936 8.73267 3.04808L16.3885 10.7192C16.5692 10.9 16.7032 11.1026 16.7904 11.3269C16.8775 11.5513 16.9211 11.7756 16.9211 12C16.9211 12.2243 16.8775 12.4487 16.7904 12.6731C16.7032 12.8974 16.5692 13.1 16.3885 13.2807L8.7173 20.9519C8.51858 21.1506 8.28461 21.2474 8.01537 21.2423C7.74616 21.2371 7.51219 21.1352 7.31347 20.9365C7.11476 20.7378 7.0154 20.5013 7.0154 20.2269C7.0154 19.9526 7.11476 19.716 7.31347 19.5173L14.8308 12Z" fill="black"/>
</g>
</svg>
