<svg width="18" height="18" viewBox="0 0 18 18" fill="none" xmlns="http://www.w3.org/2000/svg">
<mask id="mask0_2769_1698" style="mask-type:alpha" maskUnits="userSpaceOnUse" x="0" y="0" width="18" height="18">
<rect width="18" height="18" fill="#D9D9D9"/>
</mask>
<g mask="url(#mask0_2769_1698)">
<path d="M13.5008 16.3125C12.9281 16.3125 12.4411 16.112 12.0397 15.7109C11.6382 15.3099 11.4375 14.8229 11.4375 14.25C11.4375 14.1564 11.445 14.0594 11.4599 13.9591C11.4748 13.8588 11.4971 13.7663 11.5269 13.6817L5.97979 10.4336C5.78171 10.6307 5.55623 10.7848 5.30334 10.8959C5.05046 11.0069 4.78267 11.0625 4.49998 11.0625C3.92707 11.0625 3.44009 10.862 3.03906 10.4612C2.63802 10.0603 2.4375 9.5735 2.4375 9.00083C2.4375 8.42815 2.63802 7.94109 3.03906 7.53966C3.44009 7.13822 3.92707 6.9375 4.49998 6.9375C4.78267 6.9375 5.05046 6.99303 5.30334 7.10408C5.55623 7.21514 5.78171 7.36923 5.97979 7.56634L11.5269 4.31826C11.4971 4.23364 11.4748 4.14118 11.4599 4.04087C11.445 3.94057 11.4375 3.84361 11.4375 3.74998C11.4375 3.17707 11.6379 2.69009 12.0388 2.28906C12.4397 1.88802 12.9265 1.6875 13.4991 1.6875C14.0718 1.6875 14.5589 1.88794 14.9603 2.28881C15.3617 2.68969 15.5625 3.17646 15.5625 3.74914C15.5625 4.32181 15.3619 4.80887 14.9609 5.21031C14.5599 5.61174 14.0729 5.81246 13.5 5.81246C13.2173 5.81246 12.9495 5.75694 12.6966 5.64589C12.4437 5.53483 12.2183 5.38074 12.0202 5.18363L6.47304 8.43171C6.50286 8.51632 6.52521 8.60861 6.54011 8.70859C6.55501 8.80855 6.56246 8.90518 6.56246 8.99848C6.56246 9.09179 6.55501 9.18893 6.54011 9.28989C6.52521 9.39086 6.50286 9.48364 6.47304 9.56826L12.0202 12.8163C12.2183 12.6192 12.4437 12.4651 12.6966 12.3541C12.9495 12.243 13.2173 12.1875 13.5 12.1875C14.0729 12.1875 14.5599 12.3879 14.9609 12.7888C15.3619 13.1897 15.5625 13.6765 15.5625 14.2491C15.5625 14.8218 15.362 15.3089 14.9612 15.7103C14.5603 16.1117 14.0735 16.3125 13.5008 16.3125ZM13.5 4.68748C13.7606 4.68748 13.982 4.59638 14.1642 4.41416C14.3464 4.23194 14.4375 4.01054 14.4375 3.74996C14.4375 3.48939 14.3464 3.26799 14.1642 3.08576C13.982 2.90356 13.7606 2.81246 13.5 2.81246C13.2394 2.81246 13.018 2.90357 12.8358 3.08578C12.6536 3.26801 12.5625 3.48941 12.5625 3.74998C12.5625 4.01056 12.6536 4.23196 12.8358 4.41418C13.018 4.59639 13.2394 4.68748 13.5 4.68748ZM4.49998 9.93748C4.76056 9.93748 4.98196 9.84638 5.16418 9.66416C5.34639 9.48194 5.4375 9.26054 5.4375 8.99996C5.4375 8.73939 5.34639 8.51799 5.16418 8.33576C4.98196 8.15356 4.76056 8.06246 4.49998 8.06246C4.23941 8.06246 4.01801 8.15357 3.83578 8.33578C3.65357 8.51801 3.56246 8.73941 3.56246 8.99998C3.56246 9.26056 3.65357 9.48196 3.83578 9.66418C4.01801 9.84639 4.23941 9.93748 4.49998 9.93748ZM13.5 15.1875C13.7606 15.1875 13.982 15.0964 14.1642 14.9142C14.3464 14.7319 14.4375 14.5105 14.4375 14.25C14.4375 13.9894 14.3464 13.768 14.1642 13.5858C13.982 13.4036 13.7606 13.3125 13.5 13.3125C13.2394 13.3125 13.018 13.4036 12.8358 13.5858C12.6536 13.768 12.5625 13.9894 12.5625 14.25C12.5625 14.5106 12.6536 14.732 12.8358 14.9142C13.018 15.0964 13.2394 15.1875 13.5 15.1875Z" fill="black"/>
</g>
</svg>
