<svg width="33" height="32" viewBox="0 0 33 32" fill="none" xmlns="http://www.w3.org/2000/svg">
<mask id="mask0_2660_1990" style="mask-type:alpha" maskUnits="userSpaceOnUse" x="0" y="0" width="33" height="32">
<rect x="0.5" width="32" height="32" fill="#000"/>
</mask>
<g mask="url(#mask0_2660_1990)">
<path d="M9.22312 9.74848C9.36081 9.88363 9.53359 9.95 9.73077 9.95H23.2692C23.4676 9.95 23.6409 9.88136 23.7783 9.7429C23.9156 9.60454 23.9833 9.43057 23.9833 9.2317C23.9833 9.03281 23.9155 8.8594 23.7769 8.72329L23.7769 8.72328C23.6392 8.58815 23.4664 8.5218 23.2692 8.5218H9.73077C9.53238 8.5218 9.35916 8.59042 9.22174 8.72886L9.22173 8.72887C9.08439 8.86726 9.01667 9.04123 9.01667 9.2401C9.01667 9.43898 9.08446 9.61238 9.22312 9.74848ZM9.22312 9.74848L9.3282 9.64143L9.22313 9.74849C9.22313 9.74848 9.22313 9.74848 9.22312 9.74848ZM5.7782 23.7126V21.5385V5.9487C5.7782 5.79039 5.84246 5.63887 5.99067 5.49067C6.13887 5.34246 6.29039 5.2782 6.4487 5.2782H26.5513C26.7096 5.2782 26.8611 5.34246 27.0093 5.49067C27.1575 5.63887 27.2218 5.79039 27.2218 5.9487V20.718C27.2218 20.8763 27.1575 21.0278 27.0093 21.176C26.8611 21.3242 26.7096 21.3885 26.5513 21.3885H8.10853H8.04531L8.00116 21.4337L5.7782 23.7126ZM18.3748 17.9481L18.3748 17.9481C18.5122 17.8097 18.5799 17.6357 18.5799 17.4368C18.5799 17.238 18.5121 17.0645 18.3734 16.9284L18.3734 16.9284C18.2358 16.7933 18.063 16.7269 17.8658 16.7269H9.73077C9.53238 16.7269 9.35916 16.7956 9.22174 16.934L9.22173 16.934C9.08439 17.0724 9.01667 17.2464 9.01667 17.4452C9.01667 17.6441 9.08446 17.8175 9.22312 17.9536L9.22313 17.9537C9.36082 18.0888 9.5336 18.1551 9.73077 18.1551H17.8658C18.0642 18.1551 18.2374 18.0865 18.3748 17.9481ZM23.7783 13.8455L23.6743 13.7423L23.7783 13.8455C23.9156 13.7071 23.9833 13.5331 23.9833 13.3343C23.9833 13.1354 23.9155 12.962 23.7769 12.8259L23.7769 12.8258C23.6392 12.6907 23.4664 12.6244 23.2692 12.6244H9.73077C9.53238 12.6244 9.35916 12.693 9.22174 12.8314L9.22173 12.8314C9.08439 12.9698 9.01667 13.1438 9.01667 13.3427C9.01667 13.5416 9.08446 13.715 9.22312 13.8511L9.22313 13.8511C9.36082 13.9862 9.5336 14.0526 9.73077 14.0526H23.2692C23.4676 14.0526 23.6408 13.9839 23.7783 13.8455ZM6.26417 25.2172L8.6647 22.8167H26.5513C27.1361 22.8167 27.6359 22.6134 28.0413 22.208C28.4468 21.8026 28.65 21.3028 28.65 20.718V5.9487C28.65 5.36391 28.4468 4.86409 28.0413 4.45867C27.6359 4.05325 27.1361 3.85 26.5513 3.85H6.4487C5.86391 3.85 5.36409 4.05325 4.95867 4.45867C4.55325 4.86409 4.35 5.36391 4.35 5.9487V24.4248C4.35 24.6661 4.40537 24.8806 4.52446 25.0602C4.64363 25.2398 4.81916 25.3733 5.04053 25.4648C5.26188 25.5564 5.48039 25.586 5.69167 25.5431C5.90281 25.5003 6.0936 25.3878 6.26417 25.2172Z" fill="#00B3FF" stroke="#00B3FF" stroke-width="0.3"/>
</g>
</svg>
