<svg width="33" height="32" viewBox="0 0 33 32" fill="none" xmlns="http://www.w3.org/2000/svg">
<mask id="mask0_2660_2228" style="mask-type:alpha" maskUnits="userSpaceOnUse" x="0" y="0" width="33" height="32">
<rect x="0.5" width="32" height="32" fill="#000"/>
</mask>
<g mask="url(#mask0_2660_2228)">
<path d="M9.73077 18.0051H17.8658C18.0265 18.0051 18.1607 17.9509 18.2684 17.8424C18.3761 17.7339 18.4299 17.5987 18.4299 17.4368C18.4299 17.275 18.3761 17.1412 18.2684 17.0355C18.1607 16.9298 18.0265 16.8769 17.8658 16.8769H9.73077C9.57008 16.8769 9.43589 16.9312 9.3282 17.0397C9.22051 17.1482 9.16667 17.2834 9.16667 17.4452C9.16667 17.6071 9.22051 17.7409 9.3282 17.8466C9.43589 17.9523 9.57008 18.0051 9.73077 18.0051ZM9.73077 13.9026H23.2692C23.4299 13.9026 23.5641 13.8483 23.6718 13.7398C23.7795 13.6313 23.8333 13.4961 23.8333 13.3343C23.8333 13.1724 23.7795 13.0386 23.6718 12.9329C23.5641 12.8272 23.4299 12.7744 23.2692 12.7744H9.73077C9.57008 12.7744 9.43589 12.8286 9.3282 12.9371C9.22051 13.0456 9.16667 13.1808 9.16667 13.3427C9.16667 13.5045 9.22051 13.6383 9.3282 13.744C9.43589 13.8497 9.57008 13.9026 9.73077 13.9026ZM9.73077 9.8H23.2692C23.4299 9.8 23.5641 9.74574 23.6718 9.63723C23.7795 9.52874 23.8333 9.39357 23.8333 9.2317C23.8333 9.06983 23.7795 8.93604 23.6718 8.83033C23.5641 8.72464 23.4299 8.6718 23.2692 8.6718H9.73077C9.57008 8.6718 9.43589 8.72604 9.3282 8.83453C9.22051 8.94304 9.16667 9.07823 9.16667 9.2401C9.16667 9.40197 9.22051 9.53574 9.3282 9.64143C9.43589 9.74714 9.57008 9.8 9.73077 9.8ZM8.60257 22.6667L6.1581 25.1111C5.84983 25.4194 5.49642 25.4911 5.09787 25.3262C4.69929 25.1614 4.5 24.8609 4.5 24.4248V5.9487C4.5 5.40254 4.68824 4.94122 5.06473 4.56473C5.44122 4.18825 5.90254 4 6.4487 4H26.5513C27.0975 4 27.5588 4.18825 27.9353 4.56473C28.3118 4.94122 28.5 5.40254 28.5 5.9487V20.718C28.5 21.2641 28.3118 21.7254 27.9353 22.1019C27.5588 22.4784 27.0975 22.6667 26.5513 22.6667H8.60257ZM8.10853 21.5385H26.5513C26.7564 21.5385 26.9445 21.453 27.1154 21.2821C27.2863 21.1111 27.3718 20.9231 27.3718 20.718V5.9487C27.3718 5.74357 27.2863 5.55553 27.1154 5.3846C26.9445 5.21367 26.7564 5.1282 26.5513 5.1282H6.4487C6.24357 5.1282 6.05553 5.21367 5.8846 5.3846C5.71367 5.55553 5.6282 5.74357 5.6282 5.9487V24.0812L8.10853 21.5385Z" fill="#ABABAB"/>
</g>
</svg>
