<svg width="32" height="32" viewBox="0 0 32 32" fill="none" xmlns="http://www.w3.org/2000/svg">
<mask id="mask0_2660_1995" style="mask-type:alpha" maskUnits="userSpaceOnUse" x="0" y="0" width="32" height="32">
<rect width="32" height="32" fill="#000"/>
</mask>
<g mask="url(#mask0_2660_1995)">
<path d="M6.39657 28.5127C6.23589 28.5127 6.1017 28.4585 5.99401 28.35C5.88632 28.2415 5.83247 28.1063 5.83247 27.9444C5.83247 27.7826 5.88632 27.6488 5.99401 27.5431C6.1017 27.4374 6.23589 27.3845 6.39657 27.3845H25.6034C25.7641 27.3845 25.8983 27.4388 26.006 27.5473C26.1137 27.6558 26.1675 27.791 26.1675 27.9528C26.1675 28.1147 26.1137 28.2485 26.006 28.3542C25.8983 28.4599 25.7641 28.5127 25.6034 28.5127H6.39657ZM6.39657 4.61526C6.23589 4.61526 6.1017 4.56102 5.99401 4.45253C5.88632 4.34402 5.83247 4.20883 5.83247 4.04696C5.83247 3.88509 5.88632 3.7513 5.99401 3.64559C6.1017 3.5399 6.23589 3.48706 6.39657 3.48706H25.6034C25.7641 3.48706 25.8983 3.54131 26.006 3.64979C26.1137 3.75831 26.1675 3.89349 26.1675 4.05536C26.1675 4.21723 26.1137 4.35102 26.006 4.45673C25.8983 4.56242 25.7641 4.61526 25.6034 4.61526H6.39657ZM16 18.629C16.9278 18.629 17.7108 18.3082 18.3489 17.6668C18.987 17.0254 19.306 16.2384 19.306 15.3059C19.306 14.378 18.987 13.5951 18.3489 12.957C17.7108 12.3189 16.9278 11.9999 16 11.9999C15.0722 11.9999 14.2892 12.3196 13.6511 12.9591C13.0131 13.5985 12.694 14.3831 12.694 15.3129C12.694 16.2427 13.0131 17.0278 13.6511 17.6683C14.2892 18.3087 15.0722 18.629 16 18.629ZM5.87351 25.3332C5.32735 25.3332 4.86603 25.145 4.48954 24.7685C4.11303 24.392 3.92477 23.9307 3.92477 23.3845V8.61526C3.92477 8.04831 4.11303 7.58178 4.48954 7.21569C4.86603 6.84961 5.32735 6.66656 5.87351 6.66656H26.1265C26.6727 6.66656 27.134 6.85481 27.5105 7.2313C27.887 7.60778 28.0752 8.06911 28.0752 8.61526V23.3845C28.0752 23.9307 27.887 24.392 27.5105 24.7685C27.134 25.145 26.6727 25.3332 26.1265 25.3332H5.87351ZM9.30767 24.205C10.351 23.2557 11.443 22.5631 12.5838 22.1272C13.7245 21.6913 14.8624 21.4734 15.9974 21.4734C17.1325 21.4734 18.2758 21.6913 19.4274 22.1272C20.5789 22.5631 21.6673 23.2557 22.6923 24.205H26.1265C26.3316 24.205 26.5197 24.1196 26.6906 23.9486C26.8616 23.7777 26.947 23.5897 26.947 23.3845V8.61526C26.947 8.41013 26.8616 8.2221 26.6906 8.05116C26.5197 7.88023 26.3316 7.79476 26.1265 7.79476H5.87351C5.66837 7.79476 5.48034 7.88023 5.30941 8.05116C5.13845 8.2221 5.05297 8.41013 5.05297 8.61526V23.3845C5.05297 23.5897 5.13845 23.7777 5.30941 23.9486C5.48034 24.1196 5.66837 24.205 5.87351 24.205H9.30767ZM11.2547 24.205H20.7727C20.11 23.6922 19.3814 23.2968 18.5868 23.0187C17.7922 22.7406 16.9299 22.6016 16 22.6016C15.0701 22.6016 14.2096 22.7406 13.4184 23.0187C12.6272 23.2968 11.906 23.6922 11.2547 24.205ZM16.0023 17.5007C15.4053 17.5007 14.8936 17.2866 14.4671 16.8584C14.0406 16.4302 13.8273 15.9156 13.8273 15.3144C13.8273 14.7133 14.0398 14.1986 14.4648 13.7704C14.8898 13.3422 15.4007 13.1281 15.9977 13.1281C16.5947 13.1281 17.1064 13.3422 17.5329 13.7704C17.9594 14.1986 18.1727 14.7133 18.1727 15.3144C18.1727 15.9156 17.9602 16.4302 17.5352 16.8584C17.1103 17.2866 16.5993 17.5007 16.0023 17.5007Z" fill="#ABABAB"/>
</g>
</svg>
