<svg width="33" height="32" viewBox="0 0 33 32" fill="none" xmlns="http://www.w3.org/2000/svg">
<mask id="mask0_2660_2000" style="mask-type:alpha" maskUnits="userSpaceOnUse" x="0" y="0" width="33" height="32">
<rect x="0.5" width="32" height="32" fill="#000"/>
</mask>
<g mask="url(#mask0_2660_2000)">
<path d="M4.90854 26.4205C4.63987 26.4205 4.41032 26.3281 4.21987 26.1433C4.02941 25.9586 3.93417 25.7262 3.93417 25.4461V23.6034C3.93417 22.9812 4.09528 22.4474 4.41751 22.0021C4.73973 21.5568 5.18784 21.2026 5.76184 20.9396C6.99013 20.3855 8.15641 19.9502 9.26067 19.6337C10.365 19.3172 11.7006 19.1589 13.2675 19.1589C14.8459 19.1589 16.1835 19.3172 17.2803 19.6337C18.3772 19.9502 19.5455 20.3855 20.7852 20.9396C21.3478 21.2026 21.791 21.5568 22.115 22.0021C22.4389 22.4474 22.6009 22.9812 22.6009 23.6034V25.4461C22.6009 25.7262 22.5085 25.9586 22.3237 26.1433C22.139 26.3281 21.9066 26.4205 21.6265 26.4205H4.90854ZM24.6444 26.4205C24.7636 26.3255 24.863 26.1945 24.9428 26.0276C25.0225 25.8607 25.0624 25.6625 25.0624 25.4333V23.6341C25.0624 22.7281 24.879 21.9321 24.512 21.2461C24.1452 20.5601 23.6568 19.984 23.047 19.5179C23.8202 19.6695 24.5661 19.8653 25.2846 20.1055C26.0031 20.3457 26.6573 20.6119 27.247 20.9042C27.7918 21.1914 28.2311 21.5732 28.565 22.0498C28.8989 22.5263 29.0658 23.0544 29.0658 23.6341V25.4461C29.0658 25.7262 28.9706 25.9586 28.7801 26.1433C28.5897 26.3281 28.3601 26.4205 28.0915 26.4205H24.6444ZM13.2675 15.9743C12.1675 15.9743 11.2429 15.5997 10.4938 14.8506C9.74465 14.1014 9.37007 13.1769 9.37007 12.0769C9.37007 10.9655 9.74465 10.0381 10.4938 9.29461C11.2429 8.55117 12.1675 8.17944 13.2675 8.17944C14.3789 8.17944 15.3063 8.55117 16.0498 9.29461C16.7933 10.0381 17.165 10.9655 17.165 12.0769C17.165 13.1769 16.7933 14.1014 16.0498 14.8506C15.3063 15.5997 14.3789 15.9743 13.2675 15.9743ZM22.5496 12.0769C22.5496 13.1769 22.1779 14.1014 21.4344 14.8506C20.691 15.5997 19.7635 15.9743 18.6521 15.9743C18.5957 15.9743 18.5385 15.9696 18.4803 15.9602C18.4222 15.9508 18.365 15.9367 18.3085 15.9179C18.7385 15.4114 19.0657 14.831 19.29 14.1767C19.5143 13.5225 19.6265 12.8214 19.6265 12.0737C19.6265 11.326 19.5059 10.6375 19.2645 10.0085C19.0232 9.37943 18.7046 8.78286 18.3085 8.21874C18.3587 8.21134 18.416 8.20294 18.4803 8.19354C18.5447 8.18414 18.602 8.17944 18.6521 8.17944C19.7635 8.17944 20.691 8.55117 21.4344 9.29461C22.1779 10.0381 22.5496 10.9655 22.5496 12.0769ZM5.06237 25.2923H21.4727V23.6034C21.4727 23.2621 21.3819 22.9555 21.2004 22.6837C21.019 22.4119 20.7114 22.1618 20.2778 21.9333C19.153 21.3618 18.061 20.9445 17.0017 20.6816C15.9424 20.4186 14.6977 20.2871 13.2675 20.2871C11.8487 20.2871 10.6088 20.4186 9.54787 20.6816C8.4869 20.9445 7.39402 21.3618 6.26924 21.9333C5.83562 22.1618 5.52607 22.4119 5.34061 22.6837C5.15512 22.9555 5.06237 23.2621 5.06237 23.6034V25.2923ZM13.2675 14.8461C14.0442 14.8461 14.6999 14.5787 15.2346 14.044C15.7694 13.5092 16.0368 12.8535 16.0368 12.0769C16.0368 11.3002 15.7694 10.6445 15.2346 10.1098C14.6999 9.57502 14.0442 9.30764 13.2675 9.30764C12.4909 9.30764 11.8352 9.57502 11.3004 10.1098C10.7657 10.6445 10.4983 11.3002 10.4983 12.0769C10.4983 12.8535 10.7657 13.5092 11.3004 14.044C11.8352 14.5787 12.4909 14.8461 13.2675 14.8461Z" fill="#ABABAB"/>
</g>
</svg>
